<svg height="128" viewBox="0 0 128 128" width="128" xmlns="http://www.w3.org/2000/svg"><g fill="none" fill-rule="evenodd"><path d="m0 0h128v128h-128z" fill="#000"/><g fill-rule="nonzero"><path d="m64.5 117c-28.9949494 0-52.5-23.5050506-52.5-52.5s23.5050506-52.5 52.5-52.5 52.5 23.5050506 52.5 52.5-23.5050506 52.5-52.5 52.5z" fill="#63a2d3"/><path d="m64.5 110.75c-25.5431697 0-46.25-20.7068303-46.25-46.25s20.7068303-46.25 46.25-46.25 46.25 20.7068303 46.25 46.25-20.7068303 46.25-46.25 46.25zm0-2.5c24.1624578 0 43.75-19.5875422 43.75-43.75s-19.5875422-43.75-43.75-43.75-43.75 19.5875422-43.75 43.75 19.5875422 43.75 43.75 43.75z" fill="#fff"/><g fill="#fff" transform="translate(40.5 37)"><path d="m47.9079218 43.0421811h-4.6682099v-4.6682099c0-.516304-.4173379-.933642-.9336419-.933642-.5163041 0-.933642.417338-.933642.933642v5.6018518c0 .5163041.4173379.933642.933642.933642h5.6018518c.516304 0 .933642-.4173379.933642-.933642 0-.516304-.417338-.9336419-.933642-.9336419z"/><path d="m48.4745763 32.1414407v-18.1583899-9.32203385c0-.51550848-.4176271-.93220339-.9322034-.93220339h-4.661017v-2.79661017c0-.51550847-.4176271-.93220339-.9322034-.93220339h-6.5254237c-.5145763 0-.9322034.41669492-.9322034.93220339v2.79661017h-20.5084746v-2.79661017c0-.51550847-.4176271-.93220339-.9322033-.93220339h-6.52542377c-.51457627 0-.93220339.41669492-.93220339.93220339v2.79661017h-4.66101695c-.51457627 0-.93220339.41669491-.93220339.93220339v9.32203385 38.220339c0 .5155085.41762712.9322034.93220339.9322034h35.52067801c1.8662711 1.1745763 4.0662711 1.8644068 6.4284745 1.8644068 6.6820339 0 12.1186441-5.4366102 12.1186441-12.1186441 0-4.6638135-2.6530508-8.7151695-6.5254237-10.7399152zm-12.1186441-30.27703392h4.661017v2.79661017 2.79661017h-4.661017v-2.79661017zm-28.89830508 0h4.66101698v2.79661017 2.79661017h-4.66101698v-2.79661017zm-5.59322034 3.72881356h3.72881356v2.79661017c0 .51550847.41762712.93220339.93220339.93220339h6.52542377c.5145762 0 .9322033-.41669492.9322033-.93220339v-2.79661017h20.5084746v2.79661017c0 .51550847.4176271.93220339.9322034.93220339h6.5254237c.5145763 0 .9322034-.41669492.9322034-.93220339v-2.79661017h3.7288136v7.45762716h-44.74576272zm0 45.67796606v-36.3559322h44.74576272v16.440339c-.1827119-.0587288-.3691526-.1062712-.5555932-.1575424-.1724577-.0475423-.3449153-.0941525-.5192373-.1342372-.1575424-.0354238-.3169492-.0661865-.4763559-.0950848-.2274577-.0419491-.4558475-.0764407-.6851695-.105339-.1277119-.0158474-.2544916-.0335593-.3831356-.0456779-.3672882-.0326272-.7373729-.055-1.1093221-.055-.3150847 0-.623644.023305-.9322034.0475423v-.9797457-1.8644068-8.3898305h-8.3898305-1.8644067-6.5254238-1.8644068-6.5254237-1.8644068-8.38983047v8.3898305 1.8644068 6.5254237 1.8644068 8.3898305h8.38983047 1.8644068 6.5254237 1.8644068 6.1861017c.0270339.0820339.0605932.1612712.0885593.2423729.0783051.2265254.155678.453983.2479661.6749152.0512712.1239831.1118645.2423729.1677967.3635593.1072033.2367797.2162711.4726272.3383898.7019492.0540678.0997458.114661.1957627.1715254.2945763.1379661.2414407.2777966.4800847.4325424.7112712.0568644.0848305.119322.165.1780508.2488983.1640678.2330508.3318644.4642373.5136441.6861017.0671186.0820339.1398305.1584745.2088136.238644.1444915.1677966.2824576.3393221.4362711.499661h-32.27474572zm35.71550852-19.2705084c-.100678.0484745-.2032204.0941525-.3020339.1454237-.1752543.0913559-.3449153.1920339-.5145763.2917797-.1482204.0866949-.2964407.1752542-.4409322.2675423-.146356.0950848-.2889831.1920339-.430678.2927119-.1612712.1137288-.3178813.2330508-.4735593.3542373-.1249153.0978813-.2498305.1948305-.3700848.2983051-.1631355.1379661-.3188135.284322-.4744915.4306779-.1072034.1016102-.2181356.1994916-.3216101.3038983-.1687289.1715255-.3281356.3533051-.4866102.5350848-.0671187.0773729-.1407627.1482203-.2069492.2274576v-5.3172881h6.5254238v1.269661c-.0158475.0037288-.0307628.009322-.045678.0130508-.8585593.2078814-1.6807627.5071187-2.4582203.8874577zm-6.2858475 7.3373728c-.0326271.1072034-.0540678.2172034-.0838983.325339-.0745763.270339-.151017.540678-.2069492.8194068-.0438135.215339-.0680508.435339-.0997457.6534746-.0251695.1761864-.0605932.3495763-.0792373.5285593-.0400848.4017797-.0615254.8082203-.0615254 1.2165254 0 .3365255.018644.6767797.0494067 1.0179661.0055933.0624577.0055933.1258475.0121187.1883051.0149152.151017.0447458.2973729.0652542.4465254v.0009322c.0102543.0708475.0139831.1407628.0251695.210678h-5.7451695v-6.5254237h6.5254238v.0065254c-.0093221.0223729-.0149153.045678-.0242373.0680509-.1398305.3402542-.2675424.6879661-.3766102 1.0431355zm-22.90423729-1.1177118h6.52542369v6.5254237h-6.52542369zm0-8.3898305h6.52542369v6.5254237h-6.52542369zm31.69491529-1.8644068h-6.5254238v-6.5254237h6.5254238zm-8.3898305 0h-6.5254238v-6.5254237h6.5254238zm0 8.3898305h-6.5254238v-6.5254237h6.5254238zm-14.9152543-6.5254237h6.5254237v6.5254237h-6.5254237zm6.5254237-1.8644068h-6.5254237v-6.5254237h6.5254237zm-8.3898305 0h-6.52542369v-6.5254237h6.52542369zm1.8644068 10.2542373h6.5254237v6.5254237h-6.5254237zm26.1016949 14.9152542c-2.1049152 0-4.0634745-.6394915-5.6929661-1.7320339-.3178813-.2125424-.6180508-.4437288-.9061017-.6861017-.1006779-.0857627-.1957627-.1771186-.2927118-.2666101-.1836441-.1668644-.3616949-.3383899-.531356-.5164407-.1090678-.114661-.2144067-.2311865-.3178813-.3495763-.1528814-.1761864-.2964407-.3579661-.4362712-.5434746-.0894915-.1183898-.1817797-.2330508-.2666102-.3551695-.2060169-.2992372-.3999152-.6068644-.5733051-.9256779-.0400847-.0745763-.0717796-.1528814-.11-.2283899-.1361017-.2666101-.2628813-.5369491-.3756779-.8147457-.0484746-.1211865-.0904238-.2451695-.1351695-.3682204-.0876271-.2442372-.1677966-.4922033-.2377119-.7429661-.0158474-.0577966-.0298305-.1155932-.0447457-.1733898-.105339-.4101695-.1827119-.8175424-.2377119-1.2230508-.0037288-.0288983-.009322-.0577966-.0130509-.0876272-.0540678-.4185593-.0829661-.8333898-.0829661-1.2407627 0-.3533051.0177119-.7038135.0540678-1.0515254.0027967-.0288983.0102543-.0568644.0130509-.0857627.0354237-.3178814.0820339-.6348305.1472881-.9471186.0065254-.0298306.0167797-.0587289.0233051-.0885594.0671187-.3094915.1463559-.6171186.2423729-.9210169.0111864-.0354237.0270339-.0699153.0382203-.105339.096017-.2908475.2022882-.5798305.325339-.8632203.1155932-.2666102.2405085-.5285594.3775424-.7830509l.0922881-.1594068c.0372882-.0671186.0811017-.1305084.1202543-.1966949.1622033-.2731356.3355932-.5378813.5192372-.7933051.045678-.0633898.0932204-.1258474.1407628-.1883051.1677966-.2218644.3449152-.4353389.5294915-.6413559.064322-.0717796.1286441-.1444915.1948305-.2144068.1827119-.1938983.3747458-.3775423.5714407-.5555932.0699152-.0633898.1379661-.1286441.2097457-.1901695.2311865-.1976271.4707627-.3831356.7177966-.559322.0391526-.0279661.0764407-.0587288.1155933-.0866949 1.2165254-.8408475 2.6138983-1.4169492 4.1128813-1.6686441l.0195763-.0027966c.55-.0922881 1.1121186-.1519492 1.6891525-.1519492.3626272 0 .7233899.0195763 1.081356.0587289.0559322.0055932.11.018644.1659322.0251694.3057627.0382204.6105932.0838984.9116949.1491526.0372881.0083898.0727118.0195763.1090678.0279661.3206779.0736441.6385593.1594068.9527118.2647458.0214407.0074576.0419492.0158474.0633899.023305.3216101.11.6385593.2358475.9527118.3784746 3.5442373 1.6164407 6.0173729 5.1849153 6.0173729 9.3266949 0 5.6538136-4.6004237 10.2542373-10.2542373 10.2542373z"/></g></g></g></svg>