<svg height="256" viewBox="0 0 256 256" width="256" xmlns="http://www.w3.org/2000/svg"><g fill="none" fill-rule="evenodd"><path d="m0 0h256v256h-256z" fill="#000"/><g fill-rule="nonzero"><path d="m128 233c-57.9898987 0-105-47.010101-105-105 0-57.9898987 47.0101013-105 105-105 57.989899 0 105 47.0101013 105 105 0 57.989899-47.010101 105-105 105z" fill="#63a2d3"/><path d="m128 220.5c-51.0863394 0-92.5-41.413661-92.5-92.5 0-51.0863394 41.4136606-92.5 92.5-92.5 51.086339 0 92.5 41.4136606 92.5 92.5 0 51.086339-41.413661 92.5-92.5 92.5zm0-5c48.324916 0 87.5-39.175084 87.5-87.5 0-48.3249156-39.175084-87.5-87.5-87.5-48.3249156 0-87.5 39.1750844-87.5 87.5 0 48.324916 39.1750844 87.5 87.5 87.5z" fill="#fff"/><g fill="#fff" transform="translate(80 73)"><path d="m95.8158436 86.0843621h-9.3364197v-9.3364197c0-1.032608-.834676-1.867284-1.867284-1.867284s-1.8672839.834676-1.8672839 1.867284v11.2037037c0 1.032608.8346759 1.8672839 1.8672839 1.8672839h11.2037037c1.032608 0 1.867284-.8346759 1.867284-1.8672839s-.834676-1.867284-1.867284-1.867284z"/><path d="m96.9491525 64.2828814v-36.3167797-18.6440678c0-1.03101695-.8352542-1.86440678-1.8644067-1.86440678h-9.3220339v-5.59322034c0-1.03101695-.8352543-1.86440678-1.8644068-1.86440678h-13.0508475c-1.0291525 0-1.8644068.83338983-1.8644068 1.86440678v5.59322034h-41.0169491v-5.59322034c0-1.03101695-.8352542-1.86440678-1.8644068-1.86440678h-13.0508474c-1.0291526 0-1.8644068.83338983-1.8644068 1.86440678v5.59322034h-9.32203392c-1.02915254 0-1.86440678.83338983-1.86440678 1.86440678v18.6440678 76.4406783c0 1.031017.83525424 1.864406 1.86440678 1.864406h71.04135592c3.7325424 2.349153 8.1325424 3.728814 12.8569492 3.728814 13.3640678 0 24.2372881-10.8732203 24.2372881-24.2372881 0-9.3276272-5.306102-17.430339-13.0508475-21.4798305zm-24.2372881-60.55406784h9.3220339v5.59322034 5.5932203h-9.3220339v-5.5932203zm-57.7966102 0h9.3220339v5.59322034 5.5932203h-9.3220339v-5.5932203zm-11.18644064 7.45762714h7.45762714v5.5932203c0 1.031017.8352542 1.8644068 1.8644068 1.8644068h13.0508474c1.0291526 0 1.8644068-.8333898 1.8644068-1.8644068v-5.5932203h41.0169491v5.5932203c0 1.031017.8352543 1.8644068 1.8644068 1.8644068h13.0508475c1.0291525 0 1.8644068-.8333898 1.8644068-1.8644068v-5.5932203h7.4576271v14.9152542h-89.49152544zm0 91.3559323v-72.7118645h89.49152544v32.8806779c-.3654237-.1174576-.7383051-.2125423-1.1111865-.3150847-.3449152-.0950848-.6898305-.1883051-1.0384745-.2684746-.3150848-.0708474-.6338983-.1323729-.9527119-.1901695-.4549153-.0838983-.9116949-.1528813-1.370339-.2106779-.2554237-.031695-.508983-.0671187-.7662712-.091356-.7345762-.0652542-1.4747457-.11-2.218644-.11-.6301695 0-1.2472882.0466102-1.8644068.0950848v-1.9594916-3.7288135-16.779661h-16.779661-3.7288136-13.0508474-3.7288136-13.0508475-3.7288135-16.779661v16.779661 3.7288135 13.0508475 3.7288136 16.779661h16.779661 3.7288135 13.0508475 3.7288136 12.3722033c.0540678.1640678.1211865.3225424.1771187.4847457.1566102.4530509.3113559.9079661.4959322 1.3498306.1025424.2479661.2237288.4847457.3355932.7271186.2144068.4735593.4325424.9452542.6767797 1.4038983.1081356.1994915.229322.3915254.3430508.5891525.2759322.4828814.5555932.9601695.8650848 1.4225424.1137288.169661.238644.33.3561017.4977966.3281356.4661013.6637288.9284743 1.0272881 1.3722033.1342373.164068.279661.316949.4176271.477288.2889831.335593.5649153.678644.8725424.999322h-64.54949154zm71.43101694-38.5410171c-.2013559.0969492-.4064407.1883051-.6040678.2908475-.3505085.1827119-.6898305.3840678-1.0291525.5835593-.2964407.1733898-.5928814.3505085-.8818644.5350848-.2927119.1901694-.5779661.3840678-.861356.5854237-.3225423.2274576-.6357627.4661017-.9471186.7084746-.2498305.1957627-.499661.389661-.7401695.5966101-.3262712.2759322-.6376271.5686441-.9489831.861356-.2144067.2032203-.4362711.398983-.6432203.6077966-.3374576.3430508-.6562712.7066101-.9732203 1.0701695-.1342373.1547457-.2815255.2964406-.4138983.4549152v-10.6345763h13.0508474v2.5393221c-.0316949.0074576-.0615254.0186441-.0913559.0261017-1.7171187.4157627-3.3615254 1.0142373-4.9164407 1.7749152zm-12.5716949 14.6747458c-.0652542.2144068-.1081356.4344068-.1677966.650678-.1491526.5406779-.3020339 1.0813559-.4138983 1.6388135-.0876271.430678-.1361017.870678-.1994915 1.3069492-.050339.3523729-.1211865.6991525-.1584746 1.0571186-.0801695.8035593-.1230509 1.6164407-.1230509 2.4330509 0 .6730508.0372882 1.3535593.0988136 2.0359322.0111864.1249152.0111864.2516949.0242373.3766101.0298305.3020339.0894915.5947458.1305085.8930509v.0018644c.0205084.1416949.0279661.2815254.0503389.4213559h-11.4903389v-13.0508474h13.0508474v.0130508c-.0186441.0447458-.0298305.0913559-.0484746.1361017-.279661.6805085-.5350847 1.3759322-.7532203 2.0862712zm-45.8084746-2.2354237h13.0508475v13.0508474h-13.0508475zm0-16.7796611h13.0508475v13.0508475h-13.0508475zm63.3898305-3.7288135h-13.0508474v-13.0508475h13.0508474zm-16.779661 0h-13.0508474v-13.0508475h13.0508474zm0 16.779661h-13.0508474v-13.0508475h13.0508474zm-29.8305085-13.0508475h13.0508475v13.0508475h-13.0508475zm13.0508475-3.7288135h-13.0508475v-13.0508475h13.0508475zm-16.779661 0h-13.0508475v-13.0508475h13.0508475zm3.7288135 20.5084746h13.0508475v13.0508474h-13.0508475zm52.2033899 29.830508c-4.2098305 0-8.1269492-1.278983-11.3859322-3.464067-.6357628-.425085-1.2361017-.887458-1.8122034-1.372204-.201356-.171525-.3915255-.354237-.5854238-.53322-.3672881-.333729-.7233898-.67678-1.0627118-1.0328814-.2181356-.2293221-.4288136-.4623729-.6357627-.6991526-.3057627-.3523729-.5928814-.7159322-.8725424-1.0869491-.1789831-.2367797-.3635593-.4661017-.5332203-.710339-.4120339-.5984746-.7998306-1.2137288-1.1466102-1.851356-.0801695-.1491525-.1435593-.3057627-.22-.4567796-.2722034-.5332204-.5257627-1.0738983-.7513559-1.6294915-.0969492-.2423729-.1808475-.490339-.270339-.7364407-.1752543-.4884746-.3355933-.9844068-.4754238-1.4859322-.0316949-.1155932-.059661-.2311865-.0894915-.3467797-.210678-.820339-.3654237-1.6350847-.4754237-2.4461017-.0074576-.0577966-.0186441-.1155932-.0261017-.1752542-.1081356-.8371187-.1659322-1.6667797-.1659322-2.4815254 0-.7066102.0354237-1.4076272.1081356-2.1030509.0055932-.0577966.0205085-.1137288.0261017-.1715254.0708474-.6357627.1640678-1.269661.2945762-1.8942373.0130509-.059661.0335594-.1174576.0466102-.1771186.1342373-.6189831.2927119-1.2342373.4847458-1.8420339.0223729-.0708475.0540678-.1398305.0764407-.210678.1920339-.5816949.4045762-1.159661.6506779-1.7264407.2311865-.5332203.481017-1.0571186.7550848-1.5661017l.1845762-.3188135c.0745763-.1342373.1622034-.261017.2405085-.3933899.3244068-.5462712.6711865-1.0757627 1.0384746-1.5866101.0913559-.1267797.1864407-.251695.2815254-.3766102.3355932-.4437288.6898305-.870678 1.0589831-1.2827119.128644-.1435593.2572881-.288983.389661-.4288135.3654237-.3877966.7494915-.7550848 1.1428813-1.1111865.1398305-.1267796.2759322-.2572881.4194916-.380339.4623728-.3952542.9415254-.7662711 1.4355932-1.118644.0783051-.0559322.1528813-.1174576.2311864-.1733899 2.4330509-1.6816949 5.2277966-2.8338983 8.2257627-3.3372881l.0391526-.0055932c1.1-.1845763 2.2242373-.3038983 3.3783051-.3038983.7252542 0 1.4467796.0391525 2.1627118.1174576.1118644.0111865.22.0372882.3318644.050339.6115255.0764407 1.2211865.1677966 1.8233899.2983051.0745762.0167796.1454237.0391525.2181356.0559322.6413559.1472881 1.2771186.3188135 1.9054237.5294915.0428813.0149153.0838983.0316949.1267796.0466102.6432204.22 1.2771187.4716949 1.9054238.7569491 7.0884743 3.2328814 12.0347453 10.3698305 12.0347453 18.6533899 0 11.3076271-9.200847 20.5084741-20.5084741 20.5084741z"/></g></g></g></svg>